<svg width="66" height="79" viewBox="0 0 66 79" fill="none" xmlns="http://www.w3.org/2000/svg">
<g filter="url(#filter0_d)">
<path d="M39.0075 13.089C38.623 13.0913 38.2409 13.1507 37.8742 13.2652L36.2944 13.7503L19.4276 18.9254C18.4758 19.2299 17.6393 19.8123 17.028 20.5961C16.4166 21.3799 16.059 22.3285 16.002 23.3173V53.6201C15.9874 54.0044 16.0527 54.3875 16.1939 54.7456C16.3351 55.1038 16.5492 55.4294 16.8229 55.7021C17.0966 55.9749 17.424 56.189 17.7848 56.3312C18.1456 56.4733 18.532 56.5405 18.9201 56.5284C19.3049 56.527 19.6873 56.4684 20.0545 56.3547L36.2939 51.3697L38.4991 50.693C39.4506 50.3882 40.2868 49.8057 40.8981 49.0219C41.5093 48.2382 41.867 47.2897 41.9242 46.3011V15.9973C41.9388 15.6132 41.8735 15.2302 41.7324 14.8721C41.5913 14.5141 41.3773 14.1886 41.1038 13.9158C40.8303 13.6431 40.5031 13.429 40.1424 13.2867C39.7818 13.1445 39.3955 13.0772 39.0075 13.089Z" fill="#213935"/>
</g>
<path d="M39.0075 13.089C38.623 13.0913 38.2409 13.1507 37.8742 13.2652L36.2944 13.7503L19.4276 18.9254C18.4758 19.2299 17.6393 19.8123 17.028 20.5961C16.4166 21.3799 16.059 22.3285 16.002 23.3173V53.6201C15.9874 54.0044 16.0527 54.3875 16.1939 54.7456C16.3351 55.1038 16.5492 55.4294 16.8229 55.7021C17.0966 55.9749 17.424 56.189 17.7848 56.3312C18.1456 56.4733 18.532 56.5405 18.9201 56.5284C19.3049 56.527 19.6873 56.4684 20.0545 56.3547L36.2939 51.3697L38.4991 50.693C39.4506 50.3882 40.2868 49.8057 40.8981 49.0219C41.5093 48.2382 41.867 47.2897 41.9242 46.3011V15.9973C41.9388 15.6132 41.8735 15.2302 41.7324 14.8721C41.5913 14.5141 41.3773 14.1886 41.1038 13.9158C40.8303 13.6431 40.5031 13.429 40.1424 13.2867C39.7818 13.1445 39.3955 13.0772 39.0075 13.089Z" stroke="#FFFFFE" stroke-width="2.858" stroke-miterlimit="10"/>
<g filter="url(#filter1_d)">
<path d="M48.0818 17.5592C47.6972 17.5615 47.3152 17.6209 46.9484 17.7354L45.3686 18.2205L28.5018 23.3956C27.5501 23.7 26.7136 24.2823 26.1022 25.0661C25.4909 25.8498 25.1332 26.7983 25.0762 27.787V58.0904C25.0616 58.4746 25.1269 58.8577 25.2681 59.2158C25.4093 59.574 25.6234 59.8996 25.8971 60.1724C26.1708 60.4451 26.4982 60.6592 26.859 60.8014C27.2198 60.9435 27.6062 61.0107 27.9944 60.9987C28.3791 60.9972 28.7615 60.9386 29.1287 60.8249L45.3681 55.8399L47.5733 55.1632C48.5248 54.8584 49.3611 54.2759 49.9723 53.4921C50.5835 52.7084 50.9412 51.76 50.9984 50.7713V20.4675C51.013 20.0834 50.9478 19.7004 50.8066 19.3424C50.6655 18.9843 50.4515 18.6588 50.178 18.386C49.9045 18.1133 49.5773 17.8992 49.2167 17.7569C48.8561 17.6147 48.4697 17.5474 48.0818 17.5592Z" fill="#213935"/>
</g>
<path d="M48.0791 17.5587C47.6945 17.561 47.3125 17.6204 46.9457 17.7349L45.3659 18.2201L28.4991 23.3951C27.5474 23.6995 26.7109 24.2818 26.0996 25.0656C25.4882 25.8493 25.1305 26.7978 25.0736 27.7865V58.0899C25.0589 58.4741 25.1242 58.8572 25.2654 59.2154C25.4066 59.5735 25.6207 59.8991 25.8944 60.1719C26.1681 60.4446 26.4955 60.6587 26.8563 60.8009C27.2171 60.943 27.6036 61.0102 27.9917 60.9982C28.3764 60.9967 28.7588 60.9381 29.126 60.8244L45.3654 55.8395L47.5706 55.1627C48.5221 54.8579 49.3584 54.2754 49.9696 53.4917C50.5808 52.7079 50.9385 51.7595 50.9957 50.7708V20.467C51.0103 20.0829 50.9451 19.6999 50.804 19.3419C50.6628 18.9838 50.4489 18.6583 50.1753 18.3856C49.9018 18.1128 49.5746 17.8987 49.214 17.7564C48.8534 17.6142 48.4671 17.5469 48.0791 17.5587Z" stroke="#D3B160" stroke-width="2.858" stroke-miterlimit="10"/>
<path d="M45.326 18.4333L39.4032 20.1684L39.2032 57.6175L45.1235 55.8815L45.326 18.4333Z" fill="#D3B160"/>
<path d="M16.002 36.499L25.0738 41.1627L16.002 36.499Z" fill="#FFFFFE"/>
<path d="M24.6321 41.9587L16.9546 38.0118V35.9648L25.515 40.3667L24.6321 41.9587Z" fill="#D3B160"/>
<path d="M35.7528 13.289V11" stroke="#FFFFFE" stroke-width="2.857" stroke-miterlimit="10" stroke-linecap="round"/>
<defs>
<filter id="filter0_d" x="0" y="0.0876465" width="57.9262" height="75.4422" filterUnits="userSpaceOnUse" color-interpolation-filters="sRGB">
<feFlood flood-opacity="0" result="BackgroundImageFix"/>
<feColorMatrix in="SourceAlpha" type="matrix" values="0 0 0 0 0 0 0 0 0 0 0 0 0 0 0 0 0 0 127 0"/>
<feOffset dy="3"/>
<feGaussianBlur stdDeviation="8"/>
<feColorMatrix type="matrix" values="0 0 0 0 0 0 0 0 0 0 0 0 0 0 0 0 0 0 0.25 0"/>
<feBlend mode="normal" in2="BackgroundImageFix" result="effect1_dropShadow"/>
<feBlend mode="normal" in="SourceGraphic" in2="effect1_dropShadow" result="shape"/>
</filter>
<filter id="filter1_d" x="10.0742" y="5.55786" width="55.9262" height="73.4422" filterUnits="userSpaceOnUse" color-interpolation-filters="sRGB">
<feFlood flood-opacity="0" result="BackgroundImageFix"/>
<feColorMatrix in="SourceAlpha" type="matrix" values="0 0 0 0 0 0 0 0 0 0 0 0 0 0 0 0 0 0 127 0"/>
<feOffset dy="3"/>
<feGaussianBlur stdDeviation="7.5"/>
<feColorMatrix type="matrix" values="0 0 0 0 0 0 0 0 0 0 0 0 0 0 0 0 0 0 0.471 0"/>
<feBlend mode="normal" in2="BackgroundImageFix" result="effect1_dropShadow"/>
<feBlend mode="normal" in="SourceGraphic" in2="effect1_dropShadow" result="shape"/>
</filter>
</defs>
</svg>
